<?xml version="1.0" encoding="utf-8"?>
<!-- Generator: Adobe Illustrator 25.2.1, SVG Export Plug-In . SVG Version: 6.00 Build 0)  -->
<svg version="1.1" id="Layer_1" xmlns="http://www.w3.org/2000/svg" xmlns:xlink="http://www.w3.org/1999/xlink" x="0px" y="0px"
	 viewBox="0 0 152.8 69.7" style="enable-background:new 0 0 152.8 69.7;" xml:space="preserve">
<style type="text/css">
	.st0{fill:#FFFFFF;}
</style>
<path class="st0" d="M53.8,1.1c-0.2,0.6-0.5,1.1-0.9,1.7c-0.4,0.8-0.8,1.5-1.2,2.3l-2.5,4.6c-0.8,1.6-1.7,3.1-2.5,4.7
	s-1.7,3.1-2.5,4.7l-2.4,4.5c-4.1,7.5-8.1,15-11.9,22.5c-0.2,0.3-0.4,0.5-0.7,0.7c-0.2,0.1-0.4,0.1-0.6,0c-0.3-0.2-0.6-0.5-0.8-0.8
	L0,0h22.8L38,25.6c1.8-3.5,3.7-6.9,5.5-10.3S47.2,8.4,49,5l2.5-4.9"/>
<path class="st0" d="M60.1,44.9V2.4c0-0.4,0-0.8,0-1.3c0.1-0.3,0.2-0.5,0.5-0.7c0.2-0.1,0.3-0.1,0.5-0.1c1,0.2,2,0.6,2.8,1.2
	l2.7,1.5l3.7,2.1l4.4,2.4l4.8,2.7l4.9,2.8l4.7,2.6l4.3,2.4l3.5,2l2.5,1.4l1.1,0.6l0,0V0.6l2.2,1.1v39.6c0,0.9,0,1.9,0,2.8
	c0,0.2,0,0.4-0.1,0.6c-0.2,0.2-0.5,0.3-0.8,0.2c-1-0.3-2-0.8-2.9-1.4l-1.3-0.8l-3.5-2l-4.4-2.5l-5-2.8l-5.2-2.9l-5-2.9l-4.5-2.6
	l-3.8-2.2l-2.6-1.5l-1.2-0.7l0,0v23.1"/>
<path class="st0" d="M110.1,44.9V2.4c0-0.4,0-0.8,0-1.3c0.1-0.3,0.2-0.5,0.5-0.7c0.2-0.1,0.3-0.1,0.5-0.1c1,0.2,2,0.6,2.8,1.2
	l2.7,1.5l3.7,2.1l4.4,2.4l4.8,2.7l4.9,2.8l4.7,2.6l4.3,2.4l3.5,2l2.5,1.4l1.1,0.6l0,0V0.6l2.2,1.1v39.6c0,0.9,0,1.9,0,2.8
	c0,0.2,0,0.4-0.1,0.6c-0.2,0.2-0.5,0.3-0.8,0.2c-1-0.3-2-0.8-2.9-1.4l-1.3-0.8l-3.5-2l-4.4-2.5l-5-2.8l-5.2-2.9l-5-2.9l-4.6-2.6
	l-3.8-2.2l-2.6-1.5l-1.2-0.7l0,0v23"/>
<path class="st0" d="M27,69.4L27,69.4c0.1,0,0.2,0,0.2-0.1c0.1-0.1,0.1-0.1,0.2-0.2c0.1-0.1,0.1-0.2,0.1-0.3c0-0.1,0-0.2,0-0.3v-8.9
	c0-0.1,0-0.2,0-0.3c0-0.1-0.1-0.2-0.1-0.3c0-0.1-0.1-0.2-0.2-0.2c-0.1-0.1-0.2-0.1-0.2-0.1l0,0v-0.2h3.2c0.8,0,1.6,0.1,2.4,0.5
	c0.7,0.3,1.3,0.7,1.8,1.2c0.5,0.5,0.9,1.1,1.1,1.8c0.5,1.3,0.5,2.8,0,4.1c-0.2,0.6-0.6,1.2-1.1,1.7c-0.5,0.5-1.1,0.9-1.8,1.2
	c-0.8,0.3-1.7,0.5-2.5,0.5h-3V69.4z M34.7,64.4c0-0.7-0.1-1.4-0.4-2c-0.5-1.3-1.5-2.3-2.7-2.8c-0.6-0.3-1.3-0.4-2-0.4h-0.9V69h0.9
	c0.6,0,1.2-0.1,1.8-0.3c0.6-0.2,1.1-0.5,1.5-0.9c0.5-0.4,0.9-0.9,1.2-1.4C34.5,65.8,34.7,65.1,34.7,64.4L34.7,64.4z"/>
<path class="st0" d="M50.5,69.4L50.5,69.4c0.2,0,0.3,0,0.3-0.1c0.1-0.1,0.1-0.1,0.2-0.2c0.1-0.1,0.1-0.2,0.1-0.3c0-0.1,0-0.2,0-0.3
	v-8.9c0-0.1,0-0.2,0-0.3c0-0.1-0.1-0.2-0.1-0.3c0-0.1-0.1-0.2-0.2-0.2c-0.1-0.1-0.1-0.1-0.2-0.1h-0.1v-0.2h6.4v1.5h-0.2
	c0-0.3-0.1-0.5-0.3-0.7c-0.2-0.2-0.5-0.3-0.8-0.3h-3.3v4.2H55c0.2,0,0.5-0.1,0.6-0.2c0.2-0.1,0.3-0.3,0.3-0.6h0.2v2.1H56
	c0-0.2-0.1-0.4-0.2-0.5c-0.2-0.1-0.4-0.2-0.7-0.2h-2.8v5h3.6c0.2,0,0.4,0,0.5-0.2c0.1-0.1,0.3-0.2,0.4-0.4c0.1-0.1,0.2-0.3,0.2-0.4
	c0-0.1,0.1-0.3,0.1-0.4h0.2v1.9h-6.8V69.4z"/>
<path class="st0" d="M78.6,66.6c0,0.9-0.4,1.8-1.2,2.4c-0.4,0.3-0.8,0.4-1.2,0.5c-0.4,0.1-0.8,0.2-1.3,0.2c-0.4,0-0.8,0-1.2-0.1
	L73,69.3c-0.2-0.1-0.3-0.1-0.5-0.1c-0.1,0-0.3-0.1-0.4-0.1v-1.9h0.2c0,0.4,0.1,0.7,0.3,1c0.2,0.2,0.5,0.4,0.8,0.6
	c0.3,0.1,0.6,0.2,0.9,0.3c0.2,0,0.4,0.1,0.6,0.1c0.4,0,0.8-0.1,1.2-0.2c0.3-0.1,0.6-0.3,0.8-0.6c0.2-0.2,0.4-0.5,0.5-0.8
	c0.1-0.3,0.2-0.6,0.2-0.8c0-0.3-0.1-0.6-0.2-0.9c-0.2-0.3-0.4-0.5-0.6-0.7c-0.3-0.2-0.6-0.4-0.9-0.5l-1-0.4l-1.1-0.5
	c-0.4-0.1-0.7-0.3-1-0.6c-0.3-0.2-0.5-0.5-0.7-0.8c-0.2-0.4-0.3-0.8-0.3-1.2c0-0.4,0.1-0.9,0.3-1.3c0.2-0.4,0.4-0.7,0.8-0.9
	c0.3-0.2,0.7-0.4,1.1-0.5c0.4-0.1,0.8-0.2,1.2-0.2c0.3,0,0.5,0,0.8,0.1l0.7,0.1c0.2,0,0.4,0.1,0.6,0.1c0.2,0,0.3,0,0.5,0v1.7h-0.2
	c0-0.5-0.2-1-0.7-1.2C76.3,59,75.7,58.9,75,59c-0.4,0-0.8,0.1-1.1,0.2c-0.3,0.1-0.5,0.3-0.7,0.5c-0.2,0.2-0.3,0.4-0.3,0.7
	c-0.1,0.2-0.1,0.4-0.1,0.7c0,0.3,0.1,0.6,0.2,0.8c0.1,0.2,0.3,0.4,0.6,0.6c0.3,0.2,0.5,0.3,0.8,0.4c0.3,0.1,0.6,0.3,1,0.4
	s0.8,0.3,1.2,0.5c0.4,0.2,0.7,0.4,1,0.6c0.3,0.2,0.6,0.5,0.8,0.9C78.5,65.7,78.7,66.2,78.6,66.6z"/>
<path class="st0" d="M93.4,58.6h2.4v0.2h-0.1c-0.1,0-0.2,0-0.2,0.1c-0.1,0.1-0.1,0.1-0.2,0.2c0,0.1-0.1,0.2-0.1,0.3
	c0,0.1,0,0.2,0,0.3v8.9c0,0.1,0,0.2,0,0.3c0,0.1,0.1,0.2,0.1,0.3c0,0.1,0.1,0.2,0.2,0.2c0.1,0.1,0.1,0.1,0.2,0.1h0.1v0.2h-2.4v-0.2
	h0.1c0.1,0,0.2,0,0.2-0.1c0.1-0.1,0.1-0.1,0.2-0.2c0.1-0.2,0.1-0.4,0.1-0.6v-8.9c0-0.1,0-0.2,0-0.3c0-0.1-0.1-0.2-0.1-0.3
	c0-0.1-0.1-0.2-0.2-0.2c-0.1-0.1-0.1-0.1-0.2-0.1h-0.1L93.4,58.6z"/>
<path class="st0" d="M117.9,63.8h2.4V64h-0.1c-0.1,0-0.2,0-0.2,0.1c-0.1,0.1-0.1,0.1-0.2,0.2c0,0.1-0.1,0.2-0.1,0.3
	c0,0.1,0,0.2,0,0.3v4.5c-0.2,0.1-0.4,0.1-0.7,0.2c-0.3,0.1-0.5,0.1-0.8,0.1s-0.6,0.1-0.8,0.1s-0.6,0-0.8,0c-0.9,0-1.8-0.2-2.6-0.5
	c-0.7-0.3-1.4-0.8-1.9-1.3c-0.5-0.5-0.8-1.1-1.1-1.8c-0.5-1.3-0.5-2.8,0-4.1c0.2-0.7,0.6-1.3,1.1-1.8c0.5-0.6,1.2-1,1.9-1.3
	c0.8-0.3,1.8-0.5,2.7-0.5c0.4,0,0.7,0,1.1,0.1l0.9,0.2l0.4,0.1c0.1,0,0.2,0,0.3,0h0.2v1.8h-0.2c-0.1-0.3-0.2-0.6-0.4-0.8
	c-0.2-0.2-0.4-0.4-0.7-0.5c-0.3-0.1-0.5-0.2-0.8-0.2c-0.3,0-0.5,0-0.8,0c-0.7,0-1.5,0.1-2.2,0.4c-0.6,0.3-1.1,0.7-1.5,1.1
	c-0.4,0.5-0.7,1-0.9,1.6c-0.2,0.6-0.3,1.1-0.3,1.7c0,0.7,0.1,1.3,0.4,1.9c0.2,0.6,0.6,1.2,1,1.7c0.5,0.5,1,0.9,1.6,1.2
	c0.7,0.3,1.4,0.5,2.1,0.5c0.3,0,0.5,0,0.8-0.1c0.3-0.1,0.7-0.2,0.9-0.3v-3.9c0-0.1,0-0.2,0-0.3c0-0.1-0.1-0.2-0.1-0.3
	c0-0.1-0.1-0.2-0.2-0.2c0,0-0.1,0-0.2,0h-0.1L117.9,63.8z"/>
<path class="st0" d="M136.7,69.4L136.7,69.4l0.1,0.2h-1.9v-0.2h0.1c0.1,0,0.2,0,0.2-0.1c0.1-0.1,0.1-0.1,0.2-0.2
	c0-0.1,0.1-0.2,0.1-0.3c0-0.1,0-0.2,0-0.3v-8.9c0-0.1,0-0.2,0-0.3c0-0.1-0.1-0.2-0.1-0.3c0-0.1-0.1-0.2-0.2-0.2
	c-0.1-0.1-0.2-0.1-0.3-0.1h-0.1v-0.2h1.7l6,9.5v-8.5c0-0.1,0-0.2,0-0.3c0-0.1-0.1-0.2-0.1-0.3c0-0.1-0.1-0.2-0.2-0.2
	c-0.1-0.1-0.1-0.1-0.2-0.1h0v-0.2h1.9v0.2h-0.1c-0.1,0-0.2,0-0.2,0.1c-0.1,0.1-0.1,0.1-0.2,0.2c0,0.1-0.1,0.2-0.1,0.3
	c0,0.1,0,0.2,0,0.3v10h-1l-6-9.5v8.5c0,0.1,0,0.2,0,0.3c0,0.1,0.1,0.2,0.1,0.3c0,0.1,0.1,0.2,0.2,0.2
	C136.6,69.3,136.6,69.4,136.7,69.4z"/>
</svg>
