<svg xmlns="http://www.w3.org/2000/svg" viewBox="0 0 152.78 69.74"><defs><style>.cls-1{fill:#fff;}</style></defs><g id="Layer_2" data-name="Layer 2"><g id="Layer_1-2" data-name="Layer 1"><path class="cls-1" d="M53.76,1.14a12,12,0,0,1-.87,1.67c-.41.78-.83,1.55-1.25,2.32L49.12,9.78c-.84,1.55-1.68,3.11-2.53,4.66s-1.69,3.1-2.53,4.66l-2.43,4.45Q35.51,34.75,29.69,46a1.51,1.51,0,0,1-.74.65.94.94,0,0,1-.62,0,1.69,1.69,0,0,1-.75-.79L0,0H22.78L38,25.6q2.76-5.19,5.54-10.31T49,5L51.52.06"/><path class="cls-1" d="M60.1,44.91V2.41a6.73,6.73,0,0,1,0-1.27,1,1,0,0,1,.48-.68,1.06,1.06,0,0,1,.53-.08,7.22,7.22,0,0,1,2.81,1.25l2.73,1.53,3.72,2.08,4.39,2.45,4.79,2.68,4.9,2.75,4.73,2.64,4.26,2.38,3.51,2,2.46,1.38,1.14.64,0,0V.61l2.18,1.06V41.24c0,.94,0,1.88,0,2.83a.84.84,0,0,1-.14.56.82.82,0,0,1-.79.18,9.45,9.45,0,0,1-2.92-1.39l-1.33-.76-3.53-2-4.41-2.51-5-2.83-5.17-2.94-5-2.87L69.9,26.88l-3.78-2.16-2.64-1.51-1.18-.67h0V45.61"/><path class="cls-1" d="M110.1,44.91V2.41a6.73,6.73,0,0,1,0-1.27,1,1,0,0,1,.48-.68,1.06,1.06,0,0,1,.53-.08,7.22,7.22,0,0,1,2.81,1.25l2.73,1.53,3.72,2.08,4.39,2.45,4.79,2.68,4.9,2.75,4.73,2.64,4.26,2.38,3.51,2,2.46,1.38,1.14.64,0,0V.61l2.18,1.06V41.24c0,.94,0,1.88,0,2.83a.84.84,0,0,1-.14.56.82.82,0,0,1-.79.18,9.45,9.45,0,0,1-2.92-1.39l-1.33-.76-3.53-2-4.41-2.51-5-2.83-5.17-2.94-5-2.87-4.58-2.61-3.78-2.16-2.64-1.51-1.18-.67h0V45.61"/><path class="cls-1" d="M18,69.4H18a.3.3,0,0,0,.22-.1.81.81,0,0,0,.17-.23.92.92,0,0,0,.11-.29,1.67,1.67,0,0,0,0-.29V59.62a1.47,1.47,0,0,0,0-.27,1,1,0,0,0-.1-.28.73.73,0,0,0-.16-.22.36.36,0,0,0-.24-.09H18v-.17h3.21a5.75,5.75,0,0,1,2.36.46,5.25,5.25,0,0,1,1.78,1.23,5.32,5.32,0,0,1,1.1,1.77,5.78,5.78,0,0,1,0,4.07,5.14,5.14,0,0,1-1.1,1.74,5.46,5.46,0,0,1-1.83,1.23,6.31,6.31,0,0,1-2.55.48H18Zm7.72-5a5.4,5.4,0,0,0-.38-2,5.06,5.06,0,0,0-2.72-2.78,4.93,4.93,0,0,0-2-.42h-.85V69h.88a6,6,0,0,0,1.81-.28A4.8,4.8,0,0,0,24,67.86a4.49,4.49,0,0,0,1.19-1.43A4.28,4.28,0,0,0,25.67,64.38Z"/><path class="cls-1" d="M41.52,69.4h.09a.33.33,0,0,0,.23-.09.76.76,0,0,0,.17-.22,1.48,1.48,0,0,0,.12-.29,1,1,0,0,0,0-.28v-8.9a.93.93,0,0,0,0-.27,1.69,1.69,0,0,0-.12-.28.76.76,0,0,0-.17-.22.33.33,0,0,0-.23-.09h-.09v-.17h6.41v1.55h-.17a1.11,1.11,0,0,0-.3-.68,1.09,1.09,0,0,0-.83-.29H43.29v4.21h2.76a1,1,0,0,0,.64-.23A.74.74,0,0,0,47,62.6h.16v2.08H47a.7.7,0,0,0-.25-.52,1,1,0,0,0-.65-.21H43.29v5h3.64a1,1,0,0,0,.55-.15,1.67,1.67,0,0,0,.39-.36A1.6,1.6,0,0,0,48.1,68a1.46,1.46,0,0,0,.08-.41h.16v1.95H41.52Z"/><path class="cls-1" d="M69.64,66.62A2.77,2.77,0,0,1,68.44,69a3.44,3.44,0,0,1-1.18.54A5.4,5.4,0,0,1,66,69.7a4.29,4.29,0,0,1-1.15-.13l-.89-.25c-.17-.06-.33-.1-.48-.14a1.59,1.59,0,0,0-.43-.06v-1.9h.17a1.46,1.46,0,0,0,.32,1,2.21,2.21,0,0,0,.76.57,2.88,2.88,0,0,0,.87.26,5.22,5.22,0,0,0,.63.06A3.32,3.32,0,0,0,67,68.91a2.55,2.55,0,0,0,.85-.55,2.26,2.26,0,0,0,.49-.75,2.29,2.29,0,0,0,.16-.85,1.78,1.78,0,0,0-.23-.93,2.5,2.5,0,0,0-.61-.65,3.75,3.75,0,0,0-.86-.48l-1-.4-1.11-.45a4.37,4.37,0,0,1-1-.58,2.81,2.81,0,0,1-.69-.81,2.37,2.37,0,0,1-.27-1.18A2.7,2.7,0,0,1,63,60a2.53,2.53,0,0,1,.76-.89,3.38,3.38,0,0,1,1.08-.52,4.38,4.38,0,0,1,1.24-.18,5.13,5.13,0,0,1,.81.06l.74.14c.19.05.37.08.55.11a3,3,0,0,0,.51,0v1.72h-.16a1.25,1.25,0,0,0-.69-1.18,4.37,4.37,0,0,0-1.8-.3,2.37,2.37,0,0,0-1.1.22,1.94,1.94,0,0,0-.67.55,1.82,1.82,0,0,0-.34.7,2.45,2.45,0,0,0-.1.65,1.44,1.44,0,0,0,.21.8,2.09,2.09,0,0,0,.56.59,4.74,4.74,0,0,0,.81.44c.31.14.63.26,1,.39s.76.3,1.15.46a4.28,4.28,0,0,1,1,.62,2.74,2.74,0,0,1,.75.9A2.59,2.59,0,0,1,69.64,66.62Z"/><path class="cls-1" d="M84.43,58.59h2.36v.17H86.7a.32.32,0,0,0-.21.09.87.87,0,0,0-.17.21,2,2,0,0,0-.11.29,1.47,1.47,0,0,0,0,.27v8.87a1.06,1.06,0,0,0,0,.29.91.91,0,0,0,.1.29,1.06,1.06,0,0,0,.17.23.28.28,0,0,0,.22.1h.09v.17H84.43V69.4h.08a.32.32,0,0,0,.23-.09.84.84,0,0,0,.18-.23,1.65,1.65,0,0,0,.14-.59V59.62a.93.93,0,0,0,0-.27,1,1,0,0,0-.1-.28.79.79,0,0,0-.18-.22.32.32,0,0,0-.23-.09h-.08Z"/><path class="cls-1" d="M108.86,63.78h2.38V64h-.08a.32.32,0,0,0-.23.09.62.62,0,0,0-.17.22c0,.09-.08.19-.11.28a.93.93,0,0,0,0,.27v4.46a5,5,0,0,1-.68.2c-.26.06-.52.1-.8.14s-.56.07-.85.09-.55,0-.8,0a6.36,6.36,0,0,1-2.61-.5A5.62,5.62,0,0,1,103,67.93a5.27,5.27,0,0,1-1.08-1.82,6,6,0,0,1,0-4.09A5.14,5.14,0,0,1,103,60.2a5.66,5.66,0,0,1,1.87-1.29,6.7,6.7,0,0,1,2.67-.49,6.19,6.19,0,0,1,1.08.1l.88.19.37.09a1.7,1.7,0,0,0,.28,0h.15V60.6h-.17a1.74,1.74,0,0,0-.39-.83,2,2,0,0,0-.67-.48,3.26,3.26,0,0,0-.81-.23,7.61,7.61,0,0,0-.79-.05,4.84,4.84,0,0,0-2.16.44,4.33,4.33,0,0,0-1.5,1.14,4.65,4.65,0,0,0-.87,1.57,5.86,5.86,0,0,0-.28,1.74,5.1,5.1,0,0,0,.37,1.9,5.36,5.36,0,0,0,1,1.68,5.18,5.18,0,0,0,1.6,1.2,4.81,4.81,0,0,0,2.09.46,5.14,5.14,0,0,0,.78-.08,2.74,2.74,0,0,0,.94-.34V64.81a1.47,1.47,0,0,0,0-.27,1.08,1.08,0,0,0-.11-.28.76.76,0,0,0-.17-.22A.33.33,0,0,0,109,64h-.09Z"/><path class="cls-1" d="M127.69,69.4h.09v.17h-1.85V69.4H126a.32.32,0,0,0,.23-.1.66.66,0,0,0,.17-.23,1.25,1.25,0,0,0,.11-.29,1.06,1.06,0,0,0,0-.29V59.62a1.32,1.32,0,0,0,0-.27,1.52,1.52,0,0,0-.09-.28.67.67,0,0,0-.19-.22.43.43,0,0,0-.28-.09h-.08v-.17h1.68l6,9.52V59.62a1.47,1.47,0,0,0,0-.27,1.69,1.69,0,0,0-.12-.28.79.79,0,0,0-.18-.22.32.32,0,0,0-.23-.09H133v-.17h1.86v.17h-.08a.32.32,0,0,0-.23.09.79.79,0,0,0-.18.22,1.08,1.08,0,0,0-.11.28,1.39,1.39,0,0,0,0,.27v9.95h-1l-6-9.55v8.47a1.59,1.59,0,0,0,0,.29.92.92,0,0,0,.11.29,1.06,1.06,0,0,0,.17.23A.32.32,0,0,0,127.69,69.4Z"/></g></g></svg>